<mxfile host="65bd71144e">
    <diagram id="t9X15T-bAVmE6qH7Ks0-" name="Page-1">
        <mxGraphModel dx="1469" dy="609" grid="1" gridSize="10" guides="1" tooltips="1" connect="1" arrows="1" fold="1" page="1" pageScale="1" pageWidth="827" pageHeight="1169" math="0" shadow="0">
            <root>
                <mxCell id="0"/>
                <mxCell id="1" parent="0"/>
                <mxCell id="2" value="&lt;font style=&quot;font-size: 14px;&quot;&gt;Портал по покупке авиабилетов&lt;/font&gt;" style="rounded=0;whiteSpace=wrap;html=1;" parent="1" vertex="1">
                    <mxGeometry x="280" y="240" width="280" height="160" as="geometry"/>
                </mxCell>
                <mxCell id="3" value="&lt;font style=&quot;font-size: 14px;&quot;&gt;A0&lt;/font&gt;" style="rounded=0;whiteSpace=wrap;html=1;" parent="1" vertex="1">
                    <mxGeometry x="520" y="360" width="40" height="40" as="geometry"/>
                </mxCell>
                <mxCell id="6" value="" style="endArrow=classic;html=1;fontSize=14;entryX=-0.004;entryY=0.122;entryDx=0;entryDy=0;entryPerimeter=0;" parent="1" target="2" edge="1">
                    <mxGeometry width="50" height="50" relative="1" as="geometry">
                        <mxPoint x="20" y="260" as="sourcePoint"/>
                        <mxPoint x="320" y="310" as="targetPoint"/>
                    </mxGeometry>
                </mxCell>
                <mxCell id="7" value="Данные пользователя" style="edgeLabel;html=1;align=center;verticalAlign=middle;resizable=0;points=[];fontSize=14;" parent="6" vertex="1" connectable="0">
                    <mxGeometry x="-0.4671" y="-3" relative="1" as="geometry">
                        <mxPoint x="81" y="-23" as="offset"/>
                    </mxGeometry>
                </mxCell>
                <mxCell id="8" value="" style="endArrow=classic;html=1;fontSize=14;entryX=-0.004;entryY=0.122;entryDx=0;entryDy=0;entryPerimeter=0;" parent="1" edge="1">
                    <mxGeometry width="50" height="50" relative="1" as="geometry">
                        <mxPoint x="20" y="300" as="sourcePoint"/>
                        <mxPoint x="278.8800000000001" y="300" as="targetPoint"/>
                    </mxGeometry>
                </mxCell>
                <mxCell id="9" value="Запрос на получение списка полетов" style="edgeLabel;html=1;align=center;verticalAlign=middle;resizable=0;points=[];fontSize=14;" parent="8" vertex="1" connectable="0">
                    <mxGeometry x="-0.4671" y="-3" relative="1" as="geometry">
                        <mxPoint x="31" y="-23" as="offset"/>
                    </mxGeometry>
                </mxCell>
                <mxCell id="10" value="" style="endArrow=classic;html=1;fontSize=14;entryX=-0.004;entryY=0.122;entryDx=0;entryDy=0;entryPerimeter=0;" parent="1" edge="1">
                    <mxGeometry width="50" height="50" relative="1" as="geometry">
                        <mxPoint x="21.119999999999997" y="350" as="sourcePoint"/>
                        <mxPoint x="280.0000000000001" y="350" as="targetPoint"/>
                    </mxGeometry>
                </mxCell>
                <mxCell id="11" value="Запрос на покупку билета" style="edgeLabel;html=1;align=center;verticalAlign=middle;resizable=0;points=[];fontSize=14;" parent="10" vertex="1" connectable="0">
                    <mxGeometry x="-0.4671" y="-3" relative="1" as="geometry">
                        <mxPoint x="70" y="-23" as="offset"/>
                    </mxGeometry>
                </mxCell>
                <mxCell id="12" value="" style="endArrow=classic;html=1;fontSize=14;entryX=-0.004;entryY=0.122;entryDx=0;entryDy=0;entryPerimeter=0;" parent="1" edge="1">
                    <mxGeometry width="50" height="50" relative="1" as="geometry">
                        <mxPoint x="21.120000000000005" y="390" as="sourcePoint"/>
                        <mxPoint x="280" y="390" as="targetPoint"/>
                    </mxGeometry>
                </mxCell>
                <mxCell id="13" value="Запрос на просмотр купленных и сданных билетов&amp;nbsp;" style="edgeLabel;html=1;align=center;verticalAlign=middle;resizable=0;points=[];fontSize=14;" parent="12" vertex="1" connectable="0">
                    <mxGeometry x="-0.4671" y="-3" relative="1" as="geometry">
                        <mxPoint x="-10" y="-23" as="offset"/>
                    </mxGeometry>
                </mxCell>
                <mxCell id="16" value="" style="endArrow=classic;html=1;fontSize=14;entryX=0.289;entryY=-0.016;entryDx=0;entryDy=0;entryPerimeter=0;" parent="1" edge="1">
                    <mxGeometry width="50" height="50" relative="1" as="geometry">
                        <mxPoint x="490" y="82.56" as="sourcePoint"/>
                        <mxPoint x="490.9200000000001" y="240.00000000000006" as="targetPoint"/>
                    </mxGeometry>
                </mxCell>
                <mxCell id="17" value="ФЗ о&lt;br&gt;защите&lt;br&gt;прав&lt;br&gt;потребителей" style="edgeLabel;html=1;align=center;verticalAlign=middle;resizable=0;points=[];fontSize=14;" parent="16" vertex="1" connectable="0">
                    <mxGeometry x="0.1494" y="-4" relative="1" as="geometry">
                        <mxPoint x="-57" y="-20" as="offset"/>
                    </mxGeometry>
                </mxCell>
                <mxCell id="21" value="" style="endArrow=classic;html=1;fontSize=14;entryX=0.289;entryY=-0.016;entryDx=0;entryDy=0;entryPerimeter=0;" parent="1" edge="1">
                    <mxGeometry width="50" height="50" relative="1" as="geometry">
                        <mxPoint x="350" y="82.55999999999995" as="sourcePoint"/>
                        <mxPoint x="350.9200000000001" y="240" as="targetPoint"/>
                    </mxGeometry>
                </mxCell>
                <mxCell id="22" value="ФЗ о&lt;br&gt;защите&lt;br&gt;персональных&lt;br&gt;данных" style="edgeLabel;html=1;align=center;verticalAlign=middle;resizable=0;points=[];fontSize=14;" parent="21" vertex="1" connectable="0">
                    <mxGeometry x="0.1494" y="-4" relative="1" as="geometry">
                        <mxPoint x="-57" y="-20" as="offset"/>
                    </mxGeometry>
                </mxCell>
                <mxCell id="23" value="" style="endArrow=classic;html=1;fontSize=14;" parent="1" edge="1">
                    <mxGeometry width="50" height="50" relative="1" as="geometry">
                        <mxPoint x="350" y="560" as="sourcePoint"/>
                        <mxPoint x="350" y="400" as="targetPoint"/>
                    </mxGeometry>
                </mxCell>
                <mxCell id="24" value="Сервера&lt;br&gt;с сервисами&lt;br&gt;приложения" style="edgeLabel;html=1;align=center;verticalAlign=middle;resizable=0;points=[];fontSize=14;" parent="23" vertex="1" connectable="0">
                    <mxGeometry x="0.1938" y="-1" relative="1" as="geometry">
                        <mxPoint x="-51" y="6" as="offset"/>
                    </mxGeometry>
                </mxCell>
                <mxCell id="27" value="" style="endArrow=classic;html=1;fontSize=14;" parent="1" edge="1">
                    <mxGeometry width="50" height="50" relative="1" as="geometry">
                        <mxPoint x="430" y="560" as="sourcePoint"/>
                        <mxPoint x="430" y="400" as="targetPoint"/>
                    </mxGeometry>
                </mxCell>
                <mxCell id="28" value="Очередь&lt;br&gt;Kafka" style="edgeLabel;html=1;align=center;verticalAlign=middle;resizable=0;points=[];fontSize=14;" parent="27" vertex="1" connectable="0">
                    <mxGeometry x="0.1938" y="-1" relative="1" as="geometry">
                        <mxPoint x="-41" y="6" as="offset"/>
                    </mxGeometry>
                </mxCell>
                <mxCell id="29" value="" style="endArrow=classic;html=1;fontSize=14;" parent="1" edge="1">
                    <mxGeometry width="50" height="50" relative="1" as="geometry">
                        <mxPoint x="510" y="560" as="sourcePoint"/>
                        <mxPoint x="510" y="400" as="targetPoint"/>
                    </mxGeometry>
                </mxCell>
                <mxCell id="30" value="СУБД&lt;br&gt;Postgres" style="edgeLabel;html=1;align=center;verticalAlign=middle;resizable=0;points=[];fontSize=14;" parent="29" vertex="1" connectable="0">
                    <mxGeometry x="0.1938" y="-1" relative="1" as="geometry">
                        <mxPoint x="-41" y="6" as="offset"/>
                    </mxGeometry>
                </mxCell>
                <mxCell id="3SwQRDL6SNz5n02wWCx--30" style="edgeStyle=orthogonalEdgeStyle;rounded=0;html=1;exitX=1;exitY=0.5;exitDx=0;exitDy=0;fontSize=14;startArrow=none;startFill=0;endArrow=classic;endFill=1;" parent="1" edge="1">
                    <mxGeometry relative="1" as="geometry">
                        <mxPoint x="800" y="320" as="targetPoint"/>
                        <mxPoint x="560" y="319.5" as="sourcePoint"/>
                        <Array as="points">
                            <mxPoint x="740" y="320"/>
                            <mxPoint x="740" y="320"/>
                        </Array>
                    </mxGeometry>
                </mxCell>
                <mxCell id="3SwQRDL6SNz5n02wWCx--31" value="Страница с результатом&lt;br&gt;выполнения запроса" style="edgeLabel;html=1;align=center;verticalAlign=middle;resizable=0;points=[];fontSize=14;" parent="3SwQRDL6SNz5n02wWCx--30" vertex="1" connectable="0">
                    <mxGeometry x="0.0833" y="4" relative="1" as="geometry">
                        <mxPoint x="-10" y="-25" as="offset"/>
                    </mxGeometry>
                </mxCell>
            </root>
        </mxGraphModel>
    </diagram>
</mxfile>